<svg width="258" height="96" viewBox="0 0 258 96" fill="none" xmlns="http://www.w3.org/2000/svg">
<g id="Frame">
<path id="Vector" d="M54.5428 36.2222C51.8042 47.5776 48.6558 58.8372 46.0428 70.2222C45.9165 70.7728 43.9627 76.9518 45.0428 77.7778C45.706 78.2849 47.68 74.7829 47.8206 74.5556C51.3102 68.9149 53.8227 62.4385 55.8762 56.1667C58.1582 49.1967 66.8239 23.6806 50.9317 28.3611C45.4765 29.9678 40.6958 33.3712 36.3206 36.8889C29.7927 42.1374 23.3136 47.9741 17.9317 54.4167C17.3882 55.0673 12.4242 60.4913 16.7651 60.8333C20.1571 61.1006 24.3206 59.2445 27.3206 58.0278C43.987 51.2686 59.9291 42.8189 76.5151 35.8611C87.7248 31.1586 99.0998 26.635 110.932 23.7222C113.729 23.0336 119.212 22 122.432 22C130.336 22 121.106 22.3454 126.543 23.2222" stroke="black" stroke-linecap="round" stroke-linejoin="round"/>
<path id="Vector_2" d="M54.5428 59.7222C58.2321 57.1216 61.6534 55.3196 66.0428 54.2222" stroke="black" stroke-linecap="round" stroke-linejoin="round"/>
<path id="Vector_3" d="M167.87 39.4937C170.212 28.0757 162.665 62.2205 159.703 73.4937C159.656 73.673 159.613 74.2237 159.676 74.0492C160.546 71.6314 161.116 69.0968 161.592 66.577C162.973 59.2808 163.62 51.1956 161.648 43.9381C157.425 28.4009 138.722 39.7299 133.426 48.6603C131.131 52.5299 138.794 51.5749 140.259 51.1603C150.277 48.3249 158.769 41.3405 168.259 37.2159C175.275 34.1667 186.255 30.9637 193.648 34.6603C199.953 37.8129 197.236 44.7894 193.481 48.827C188.176 54.5314 179.944 55.5984 172.62 56.4381C166.264 57.1668 158.392 58.605 152.037 56.9937C150.822 56.6856 151.784 56.2034 152.398 55.9937C155.057 55.0858 158.151 54.9661 160.926 55.1325C168.56 55.5906 174.765 60.4456 179.759 65.8825C186.68 73.4173 193.557 77.1117 203.37 72.4937" stroke="black" stroke-linecap="round" stroke-linejoin="round"/>
<path id="Vector_4" d="M53.0428 77.7222C55.5929 77.0422 57.3996 75.8099 59.2651 73.9444C59.6725 73.537 63.592 69.8149 62.1817 69.0556C58.9104 67.294 57.3381 74.3384 58.5984 76.1389C60.9649 79.5196 66.0034 74.5542 67.3762 72.6667C67.8895 71.9609 66.5984 74.2939 66.5984 75.1667C66.5984 76.4302 68.1421 76.6968 69.1262 76.6389C71.3702 76.5069 77.027 72.9063 73.9595 70.2222C71.5514 68.1151 66.8819 69.6763 66.5706 72.9444C66.1661 77.1921 72.9154 69.9229 73.2928 69.4167C75.7071 66.178 77.7329 62.6207 79.404 58.9444C79.7104 58.2702 80.3581 55.9377 79.7651 58.0556C78.3102 63.2516 76.7782 68.1409 77.0428 73.6111C77.2654 78.2114 82.7446 72.3575 83.4317 71.1111C83.8866 70.2861 85.2274 67.6794 84.3206 66.7222C83.3937 65.7438 82.1184 66.5729 81.5428 67.4444C80.1965 69.4833 78.9816 75.9417 83.0428 75.7222C84.6405 75.6359 86.2248 73.818 87.2651 72.7778C88.3953 71.6475 90.4044 67.6854 90.5428 69.2778C90.7102 71.2027 90.0205 75.7934 93.4317 75.1111C95.3534 74.7268 97.4681 69.6051 97.5428 72.2222C97.6248 75.0922 100.33 74.2498 102.043 73.2222" stroke="black" stroke-linecap="round" stroke-linejoin="round"/>
<path id="Vector_5" d="M97.2303 68.9722C97.1112 69.2774 97.0602 69.4011 97.4317 69.4097C97.5324 69.4121 97.9109 69.4345 97.9109 69.25C97.9109 68.9913 97.0096 68.8287 97.2303 69.1597" stroke="black" stroke-linecap="round" stroke-linejoin="round"/>
<path id="Vector_6" d="M105.293 67.9722C103.46 68.6193 101.985 69.4552 101.654 71.5278C101.335 73.5257 103.129 75.8752 105.321 74.8889C106.587 74.3188 108.765 72.2152 108.765 70.6389C108.765 70.2445 108.112 70.7626 108.043 70.8333C107.532 71.3598 107.423 72.0752 107.904 72.6667C111.189 76.7029 114.646 66.9253 110.015 68.4306C107.913 69.1137 106.423 72.1896 109.335 72.8056C113.169 73.6166 116.932 70.3651 119.543 67.9722" stroke="black" stroke-linecap="round" stroke-linejoin="round"/>
<path id="Vector_7" d="M202.62 72.7437C204.524 71.5887 206.224 70.1456 207.342 68.1881C208.004 67.0294 206.989 70.8667 207.176 72.1881C207.648 75.5388 211.685 70.0329 212.259 69.2437C212.328 69.1489 213.03 67.6552 212.87 67.8548C212.365 68.4864 212.398 69.8251 212.398 70.577C212.398 76.201 218.785 67.5172 220.495 66.9103C222.379 66.242 222.747 68.8717 222.565 70.1881C222.476 70.8251 220.879 72.8807 221.231 71.8825C221.937 69.8823 223.948 68.5179 225.842 67.7992C226.9 67.398 229.833 66.5778 229.565 68.6603C229.352 70.307 227.985 70.5813 227.426 71.8409C227.017 72.7602 229.382 71.3347 230.384 71.2437C232.387 71.0616 234.532 71.4692 236.481 71.1325C238.41 70.7993 241.365 69.198 241.565 67.0075C241.827 64.1191 238.028 65.083 236.676 66.2437C235.886 66.9219 234.826 68.0693 234.953 69.2159C235.121 70.7235 237.609 70.5491 238.62 70.7437" stroke="black" stroke-linecap="round" stroke-linejoin="round"/>
</g>
</svg>
